<?xml version="1.0" standalone="no"?>
<svg version="1.1" id="Layer_1" xmlns="http://www.w3.org/2000/svg" xmlns:xlink="http://www.w3.org/1999/xlink" x="0px" y="0px" width="595.28px" height="595.28px" viewBox="0 0 595.28 595.28" enable-background="new 0 0 595.28 595.28" xml:space="preserve">
<path id="color_x5F_2" fill="#FBC02D" d="M307.72,462.998c-6,11.333-12.667,20-28,14.667s-41.333-30-45.333-33.333
	s-16-11.333-25.333-9.333s-30,7.333-30,7.333s32.667-21.333,32-34s-0.667-23.333-12.667-36s-12-12.667-12-12.667
	s-20.667-10-20.667-29.333s7.333-30,7.333-30l9.333-9.333l5.333-3.333l6,2c0,0,14-4.332,17.333-1.665s14.667,10.332,14.667,10.332
	l-19-24.998c0,0,35.667,0.332,41.667,0.332s39.333,3.333,39.333,3.333s-0.667,24-2.667,32.667s-3.333,12.667-3.333,12.667
	l0.667,2.667c0,0-34.666-0.667-37.333-0.667s-6-1.333-6-1.333l-5.667,9.335l0.667,7l-2.333,20.332l66.667-7.333
	c0,0,14,29.333,15.333,43.333S313.72,451.665,307.72,462.998z"></path>
    <path id="color_x5F_1" d="M166.541,243.844c0.912,1.29-1.831,2.463-2.643,1.313c-0.6-0.849-1.346-1.408-2.394-1.094
	c-0.6,0.18-1.544,0.034-1.733-0.674c-0.197-0.734,0.565-1.271,1.164-1.451C163.1,241.288,165.236,241.997,166.541,243.844z
	 M214.849,237.154c0.713,0.513,1.453,1.097,1.725,1.961c0.439,1.396-1.603,2.638-2.489,3.25c-0.485,0.336-0.338,0.751,0.219,0.817
	c0.698,0.083,1.477-0.153,2.049-0.549c1.856-1.284,4.323-3.271,2.386-5.527c-1.632-1.902-4.521-2.556-5.571-4.996
	c-0.367-0.853-3.2,0.075-2.897,0.776C211.13,234.886,213.165,235.943,214.849,237.154z M208.639,253.508
	c1.557-1.202-0.865-1.767-1.84-1.015c-2.896,2.235-6.252,0.414-8.741-1.583c-0.868-0.697-3.572,0.464-2.679,1.182
	C199.253,255.2,204.347,256.822,208.639,253.508z M192.168,227.112c-0.438-1.893-0.481-3.794-0.482-5.728
	c-0.001-1.5-2.933-1.042-2.933,0.232c0.001,2.109,0.04,4.208,0.518,6.272C189.575,229.208,192.477,228.447,192.168,227.112z
	 M217.168,227.612c-0.438-1.893-0.481-3.794-0.482-5.728c-0.001-1.5-2.933-1.042-2.933,0.232c0.001,2.109,0.04,4.208,0.518,6.272
	C214.575,229.708,217.477,228.947,217.168,227.612z M191.372,209.935c1.159,0.43,3.401-1.236,1.695-1.868
	c-4.332-1.607-8.439,0.549-11.549,3.549c-1.29,1.245,1.533,1.609,2.402,0.771C185.995,210.385,188.45,208.851,191.372,209.935z
	 M288.903,453.113c-7.627,6.914-20.361-6.307-25.503-11.008c-0.744-0.68-3.461,0.424-2.693,1.126
	c6.217,5.683,15.744,15.528,25.252,12.912c5.099-1.402,7.894-5.19,10.955-9.279c3.922-5.24,7.591-11.364,7.921-18.049
	c0.058-1.173-2.849-0.574-2.896,0.372C301.511,437.848,295.233,447.375,288.903,453.113z M497.66,319.89
	c-0.176,0.166-0.399,0.32-0.721,0.431c-14.887,5.127-28.578,15.412-41.055,24.757c-6.334,4.744-12.577,9.64-18.496,14.898
	c-3.401,3.022-7.379,6.188-9.807,10.104c-0.556,0.897-3.493,1.083-2.724-0.157c0.047-0.076,0.104-0.147,0.152-0.223
	c-0.284,0.006-0.522-0.044-0.648-0.18c-9.512-10.303-16.231-23.011-22.512-35.484c-8.706,1.05-17.451-0.394-26.165-1.105
	c-0.317-0.026-0.528-0.098-0.668-0.194c-10.879,3.859-22.058,6.671-33.321,9.201c-12.807,2.876-25.49,6.135-38.246,9.211
	c-1.237,0.298-2.476,0.587-3.714,0.873c2.654,4.562,4.235,10.039,5.984,14.953c3.616,10.16,7.272,20.576,8.857,31.285
	c2.055,13.89,2.55,28.966,1.021,42.943c-1.268,11.581-3.872,25.778-13.347,33.655c-6.358,5.285-15.427,4.907-22.887,2.591
	c-19.186-5.957-32.774-21.421-47.584-34.042c-14.956-12.746-36.396-5.648-52.809,0.237c-0.942,0.338-2.07-0.096-2.005-0.62
	c-0.374-0.277-0.418-0.694,0.306-1.135c11.749-7.159,25.836-15.627,31.155-29.055c7.741-19.543-7.704-38.571-20.538-51.709
	c-0.055-0.057-0.095-0.114-0.127-0.171c-7.778-2.595-15.251-6.88-19.118-14.061c-8.506-15.798-3.991-41.021,9.807-53.639
	c-1.379-3.946,1.018-7.919,3.927-11.256c0.139-0.16,0.416-0.294,0.741-0.395c-0.28-0.44-0.557-0.882-0.834-1.324
	c-3.375,8.698-12.128,14.665-21.294,15.715c-2.855,0.327-6.16-0.22-7.875-2.721c-1.193-1.739-0.611-3.785,0.462-5.616
	c-0.229,0.021-0.472,0.043-0.739,0.068c-14.466,4.979-34.404,1.942-29.703-17.394c-5.466,0.418-11.569-0.298-16.316-2.982
	c-1.648-0.932-3.336-2.639-3.227-4.686c0.076-1.429,0.58-2.793,1.44-3.947c0.905-1.214,2.588-2.06,0.226-3.451
	c-0.697-0.411-1.395-0.821-2.092-1.231c-7.49-4.465-10.565-10.058-10.988-18.87c-0.31-6.44,0.787-12.559,7.102-15.011
	c-8.729-6.688-12.072-23.738,2.061-25.239c0.059-0.006,0.108-0.003,0.162-0.006c-2.586-9.705-3.557-20.813,5.636-27.312
	c1.095-0.774,2.336-1.509,3.635-2.112c1.002-0.645,2.027-1.059,3.052-1.106c2.995-0.767,5.945-0.504,7.867,1.86
	c1.558-2.236,3.661-4.213,5.538-5.921c4.239-3.857,8.831-7.389,13.828-10.214c4.264-2.41,15.823-7.912,16.584,0.398
	c12.223-8.476,27.373-13.762,42.314-13.143c4.453,0.185,10.779,0.313,14.385,3.373c4.063,3.448,0.816,7.834-2.068,10.906
	c9.918,0.098,32.052,4.598,22.998,18.599c8.449,1.13,17.06,12.896,11.268,20.277c0.004,0.002,0.009,0.002,0.014,0.004
	c11.277,4.511,8.603,18.975,3.105,27.361c0.513,0.213,1.109,0.547,1.702,1.067c10.087,5.387,1.041,26.507-6.093,32.81
	c0.076,0.059,0.152,0.119,0.229,0.181c0.242-0.024,0.454-0.008,0.591,0.08c9.313,5.959-3.845,15.458-9.16,18.727
	c-1.281,0.788-2.577,1.512-3.885,2.164c-0.049,0.031-0.097,0.063-0.146,0.094c17.914-2.09,35.97,0.041,53.569,3.71
	c0.856-0.365,2.2-0.455,2.202-0.1c0.032,5.717,0.506,11.91,0.48,18.072c0.076,0.015,0.147,0.036,0.211,0.066
	c11.798,5.579,24.287,7.92,36.374,7.139c1.052-1.131,1.984-2.416,2.759-3.885c9.469-17.943-6.057-35.104-16.613-48.128
	c-9.999-12.338-8.694-28.442,4.964-36.926c-0.494-2.892-0.704-5.782-1.073-7.562c-0.019-0.091,0-0.178,0.037-0.264
	c-0.026-0.24,0.197-0.513,0.831-0.75c4.289-1.598,6.438,0.559,7.648,3.903c0.216-0.072,0.432-0.121,0.612-0.148
	c0.015-0.002,0.031-0.003,0.045-0.005c-1.245-3-1.56-6.129-1.157-9.379c0.085-0.691,2.727-1.23,2.854-0.576
	c0.203-0.124,0.436-0.218,0.7-0.255c9.074-1.275,15.144,19.574,7.846,24.27c-1.208,0.777-3.584-0.306-1.935-1.368
	c0.068-0.044,0.128-0.101,0.193-0.15c-0.482,0.26-1.088,0.355-1.588,0.213c-2.092-0.593-3.737-2.084-4.915-3.867
	c-0.305,0.108-0.62,0.197-0.941,0.267c0.192,1.481,0.387,2.818,0.667,3.833c0.245,0.886-1.785,1.578-2.594,1.134
	c-4.269,0.512-6.046-3.48-6.968-7.905c-6.956,5.246-10.844,13.529-8.604,22.475c2.447,9.778,10.212,15.95,15.852,23.871
	c7.927,11.135,15.258,29.897,3.962,40.989c16.774-1.715,32.601-9.523,44.509-23.201c-0.066-0.137-0.068-0.312,0.037-0.536
	c3.874-8.267,7.751-17.255,14.874-23.285c3.552-3.007,8.727-4.389,13.127-2.96c2.542-2.039,6.059-3.858,9.154-2.567
	c1.526-1.479,3.505-2.523,5.659-1.892c1.383,0.405,2.373,1.513,3.086,2.798c11.206-5.994,23.282-10.062,35.098-14.671
	c0.205-0.279,0.41-0.558,0.636-0.828c0.641-0.766,2.235-0.681,2.641-0.044c0.472,0.088,0.653,0.339-0.002,0.688
	c-0.047,0.093-0.107,0.188-0.192,0.29c-4.975,5.947-3.404,14.973-1.48,21.832c2.143,7.639,5.258,15.018,9.017,22
	c8.376,15.557,18.87,29.182,33.849,38.835C499.224,318.713,498.559,319.541,497.66,319.89z M330.775,211.501
	c0.01,0.078,0.026,0.151,0.032,0.231c0.108,1.541-0.463,2.815-1.416,3.77c0.931,1.598,2.404,3.113,4.191,3.62
	c0.484,0.137,0.68,0.52,0.527,0.9c2.123-2.728,1.47-9.159-0.599-13.991C332.599,207.854,331.687,209.678,330.775,211.501z
	 M328.168,208.112c0.042,0.089-0.004,0.19-0.102,0.294c0.474,0.165,0.916,0.391,1.303,0.681c0.473-0.946,0.946-1.892,1.419-2.838
	c0.259-0.519,1.191-0.72,1.694-0.808c0.074-0.013,0.441-0.059,0.75-0.035c-1.533-3.277-3.732-5.657-6.135-5.32
	c-0.227,0.032-0.416,0.027-0.577,0C326.439,202.858,326.959,205.556,328.168,208.112z M324.774,209.858
	c0.479,1.826,0.768,3.85,1.014,5.758c0.167-0.051,0.327-0.107,0.472-0.178c0.121-0.278,0.465-0.519,0.886-0.67
	c0.547-0.63,0.762-1.467,0.688-2.276c-0.072-0.054-0.102-0.129-0.046-0.242c0.005-0.01,0.01-0.021,0.015-0.03
	C327.568,210.873,326.504,209.71,324.774,209.858z M318.819,205.536c0.213,1.531,0.457,4.035,0.898,6.584
	c0.415,0.014,0.591,0.124,0.106,0.405c-0.01,0.006-0.02,0.013-0.031,0.019c0.662,3.642,1.749,7.253,3.749,8.111
	C322.944,216.623,322.083,206.192,318.819,205.536z M243.22,250.5c0,0,0.029,0.013,0.077,0.036c0.132-0.121,0.263-0.244,0.397-0.376
	C243.394,250.386,243.22,250.5,243.22,250.5z M100.014,197.254c-2.032,0.407-3.423,1.302-4.312,2.506
	C97.089,198.823,98.641,197.959,100.014,197.254z M146.447,288.243c-2.601,0.184-5.308,0.334-7.412,0.355
	C141.496,288.815,143.995,288.68,146.447,288.243z M411.61,250.105c2.085,1.731,3.093,4.628,3.448,7.246
	c0.181,1.333,0.298,2.943,0.15,4.504c0.071,0.007,0.137,0.018,0.189,0.038c0.298,0.117,0.657,0.277,1,0.323
	c0.065-0.045,0.167-0.125,0.271-0.269c0.424-0.578,0.664-1.308,0.792-2.008c0.349-1.917,0.161-3.96-0.338-5.836
	c-0.454-1.705-1.125-3.665-2.484-4.875c-0.272-0.243-0.577-0.519-0.924-0.649c-0.24-0.09-0.455-0.07-0.466-0.104
	C412.6,248.876,412.064,249.474,411.61,250.105z M402.645,252.471c0.809,0.438,1.581,0.975,2.288,1.648
	c2.391,2.281,5.146,7.687,3.566,11.293c0.024,0.014,0.051,0.024,0.072,0.04c1.942,1.516,2.569,1.379,3.275-1.077
	c0.669-2.327,0.648-4.864,0.146-7.223c-0.424-1.995-1.167-4.254-2.724-5.688c-0.624,0.052-1.122-0.024-0.983-0.234
	c0.076-0.115,0.157-0.23,0.238-0.345C406.403,249.573,404.343,250.956,402.645,252.471z M287.9,308.035
	c1.635,0.268,3.275,0.499,4.921,0.682c9.602,1.071,22.711,1.475,30.832-4.915c-11.509,0.492-23.307-1.694-34.547-6.642
	C289.001,300.858,288.666,304.52,287.9,308.035z M282.65,320.253c-0.052,0.071-0.13,0.136-0.22,0.195
	c0.73,1.061,1.415,2.167,2.044,3.327c7.501-0.434,14.995-1.003,22.478-1.632c20.782-1.747,41.506-4.036,62.224-6.406
	c6.959-4.371,11.635-11.508,18.943-15.431c0.168-0.09,0.34-0.15,0.509-0.186c-1.461-3.808-2.387-7.871-2.733-11.865
	c-1.339,2.863-2.457,4.683-6.032,5.785c-1.696,0.522-1.963-0.563-0.289-1.078c5.108-1.574,4.408-10.785,8.937-13.122
	c2.226-1.148,4.839-1.373,5.356-4.421c0.883-5.208-4.331-6.709-8.522-3.811c-0.582,0.402-3.503,0.65-2.253-0.214
	c0.291-0.201,0.599-0.4,0.917-0.595c-0.11-0.107-0.194-0.242-0.239-0.41c-0.528-1.963-1.458-3.716-1.521-5.786
	c-0.038-1.251,2.52-1.701,2.894-0.484c2.898-1.072,5.69-2.409,8.525-3.634c1.053-0.456,2.452,0.028,1.705,0.678
	c0.485-0.071,0.95-0.013,1.188,0.255c0.933,1.054,6.3,7.257,8.153,5.306c1.111-1.17,1.349-3.065,1.111-4.604
	c-0.625-4.056-3.356-8.027-7.584-8.951c-10.343-2.259-17.093,12.486-21.18,21.618c0.814-0.049,1.496,0.185,1.021,0.794
	c-13.314,17.081-32.177,26.596-52.098,28.078c-0.016,0.012-0.03,0.025-0.046,0.037c-9.417,6.894-22.042,7.371-33.235,6.359
	c-1.715-0.155-3.428-0.357-5.138-0.601C286.583,313.302,285.042,316.953,282.65,320.253z M284.917,309.041
	c-4.028-0.677-8.022-1.579-11.942-2.67c-2.498-0.696-4.972-1.7-7.444-2.69c5.458,4.808,11.19,9.267,15.612,15.004
	C282.944,315.677,284.14,312.43,284.917,309.041z M233.968,274.929c4,0.964,8.187,2.734,11.448,4.127
	c5.234,2.236,11.679,5.336,14.4,10.683c1.939,3.81,1.971,6.898,0.813,9.363c0.439,0.444,0.888,0.878,1.338,1.31
	c4.18,1.309,8.28,3.436,12.502,4.611c3.546,0.987,7.137,1.85,10.76,2.537c1.791-9.299,0.718-19.529,0.56-28.723
	C268.754,275.265,251.315,273.122,233.968,274.929z M165.813,146.9c5.214-2.284,11.563-4.917,16.82-6.654
	C176.765,141.667,171.112,143.945,165.813,146.9z M171.22,207c-0.585,0.292-1.034,0.682-1.382,1.116
	c0.675-0.354,1.232-0.796,1.686-1.308C171.423,206.874,171.326,206.947,171.22,207z M165.082,236.328
	c0.864,0.157,1.728,0.389,2.577,0.692c0.033-0.128,0.069-0.256,0.101-0.385C167.004,236.41,166.084,236.251,165.082,236.328z
	 M176.822,285.452c-0.608,0.779-1.26,1.565-1.951,2.333C175.574,287.053,176.227,286.274,176.822,285.452z M181.409,278.861
	c-0.029-0.047-0.059-0.095-0.088-0.142c-0.035,0.061-0.06,0.107-0.099,0.175C181.285,278.882,181.347,278.871,181.409,278.861z
	 M191.4,288.672c5.954-2.262,12.073-3.68,18.458-2.166c4.665,1.105,8.933,3.68,12.971,6.486
	c-6.163-7.162-13.855-13.055-19.558-20.603c-0.149-0.197,0.544-0.533,0.618-0.565c0.308-0.134,0.617-0.27,0.926-0.406
	c-0.018-0.293,1.396-0.978,2.258-1.014c10.573-4.852,20.973-11.353,20.152-24.644c-0.001-0.014-0.003-0.028-0.004-0.042
	c-0.912-4.853-2.298-10.979-3.599-16.453c-2.393-7.1-5.425-14.054-7.459-21.261c-0.604,0.401-1.546,0.621-2.07,0.298
	c-1.132-0.697-2.375-0.762-3.626-0.377c-0.522,0.161-1.518,0.132-1.696-0.536c-0.187-0.695,0.678-1.152,1.201-1.313
	c1.895-0.583,3.977-0.56,5.764,0.298c-0.635-2.458-1.156-4.946-1.465-7.486c-0.025-0.203,0.182-0.393,0.49-0.552l-0.863-0.393
	c-4.28-1.361-14.812-5.163-20.805-5.873c-0.528-0.051-1.024-0.09-1.477-0.112c-1.674-0.039-2.764,0.302-2.872,1.231
	c-0.612,5.271-5.101,6.337-9.557,6.419c-1.139,0.095-2.032,0.054-2.704-0.045c-0.178-0.008-0.358-0.015-0.533-0.024
	c0.665,4.563-1.414,8.496-5.613,10.296c2.378,9.983,2.549,20.171-0.662,30.013c-0.355,1.087-3.292,1.461-2.914,0.301
	c0.097-0.296,0.18-0.593,0.271-0.89c-2.545-1.218-4.538-1.455-6.038-1.058c-1.573,1.404-2.808,2.81-3.454,4.249
	c-0.297,1.839,0.049,3.95,0.955,5.746c0.216,0.265,0.454,0.532,0.724,0.802c1.942,1.942,4.116,2.819,5.843,3.212
	c0.646-0.058,1.327-0.209,2.042-0.467c0.494-0.178,1.584-0.468,1.949,0.145C176.399,264.219,182.958,277.03,191.4,288.672z
	 M208.285,271.028c0.044,0.032,0.087,0.064,0.131,0.096c0.494-0.271,1.228-0.681,2.133-1.208
	C209.803,270.269,208.986,270.664,208.285,271.028z M181.006,291.142c1.456-1.08,2.99-2.038,4.616-2.83
	c1.355-0.661,2.994,0.5,1.194,1.377c-1.883,0.918-3.635,2.092-5.268,3.455c0.474,1.015,1.249,1.98,2.448,2.852
	c4.183,3.043,9.538,4.294,14.62,4.756c13.806,1.254,27.455,4.975,41.359,5.063c4.746,0.03,10.712,0.025,14.82-2.713
	c0.969-0.646,1.724-1.437,2.298-2.315c0-0.004,0.001-0.009,0.001-0.014c-0.081-0.095-0.162-0.19-0.244-0.285
	c-0.171-0.2,0.189-0.49,0.701-0.725c-0.401-0.411-0.802-0.821-1.192-1.245c-0.425-0.46,1.042-1.164,2.015-1.213
	c0.391-2.879-0.558-6.023-2.534-8.377c-3.622-4.314-8.746-7.023-13.945-9.007c-4.146-1.582-9.521-4.068-14.057-4.139
	c-1.968,0.863-3.743,1.333-5.12,1.218c-0.858-0.071-1.832-0.237-2.865-0.465c-4.146,0.123-8.271-0.827-12.25-3.179
	c1.095,1.282,2.23,2.53,3.397,3.746c6.085,6.335,13.121,12.272,18.166,19.511c0.072,0.104-0.187,0.308-0.576,0.505
	c0.246,0.175,0.493,0.351,0.737,0.522c1.388,0.974-1.118,2.495-2.221,1.722c-5.127-3.596-10.429-7.997-16.421-10.066
	c-7.025-2.426-13.655-0.653-20.314,2.106c-1.392,0.577-2.855-0.772-1.696-1.586c-1.581-2.183-3.084-4.414-4.551-6.668
	C182.24,285.58,180.766,288.447,181.006,291.142z M197.218,361.327c10.721,2.073,22.672,2.264,32.904-2.015
	c0.216-0.09,0.439-0.133,0.656-0.145c0.038-7.486,0.302-15.049,1.598-22.427c1.086-6.184,2.619-13.159,7.346-17.652
	c-17.577-5.524-36-8.001-53.159-14.896c-1.188-0.478,1.458-1.727,2.312-1.384c17.261,6.937,35.825,9.402,53.5,15
	c0.422,0.134,0.35,0.386,0.048,0.641c0.321,0.133,0.406,0.386-0.042,0.788c-1.225,1.097-2.233,2.403-3.084,3.835
	c0.518-0.367,1.302-0.608,1.791-0.431c7.745,2.815,17.347,2.032,25.42,1.866c4.912-0.101,9.823-0.294,14.73-0.55
	c-5.362-9.428-14.399-15.224-22.055-22.577c-0.025-0.008-0.051-0.013-0.077-0.021c-3.289,3.609-9.532,5.393-14.955,5.845
	c-15.937,1.33-32.632-2.985-48.36-5.066c-5.175-0.685-12.31-1.984-15.847-6.285c-0.204-0.248-0.378-0.496-0.546-0.745
	c-11.827,11.996-15.684,35.082-8.783,49.202C175.526,354.36,186.738,359.3,197.218,361.327z M296.772,352.69
	c-20.772,4.627-41.799,7.485-63.123,7.725c-0.177,0.832-2.54,1.362-2.846,0.474c-10.573,4.268-22.975,4.536-34.055,2.393
	c-1.216-0.235-2.459-0.506-3.712-0.812c12.236,13.012,25.743,31.459,18.47,49.821c-4.975,12.56-16.506,20.953-27.75,27.995
	c2.12-0.707,4.252-1.377,6.405-1.978c13.683-3.822,30.33-7.007,42.495,2.463c15.612,12.154,28.605,29.412,48.464,35.034
	c5.84,1.654,12.841,2.831,18.135-1.026c5.716-4.165,8.665-11.146,10.515-17.76c4.101-14.654,4.074-30.326,3.176-45.416
	c-0.724-12.177-3.33-23.69-7.158-35.229C303.237,368.685,301.03,359.675,296.772,352.69z M495.109,319.189
	c-15.673-10.422-27.014-25.519-35.215-42.369c-5.074-10.424-13.712-28.35-7.022-39.956c-11.359,4.367-22.896,8.361-33.585,14.241
	c0.271,0.648,0.489,1.305,0.652,1.917c0.648,2.439,1.198,5.995-0.267,8.275c-1.042,1.622-2.907,2.333-4.75,2.22
	c-0.263,1.046-0.686,2.016-1.37,2.781c-1.807,2.019-4.34,2.12-6.509,0.999c-4.827,3.771-9.996-1.136-13.166-4.714
	c-0.194-0.22-0.176-0.448-0.032-0.658c-2.816,1.243-5.603,2.563-8.515,3.568c0.281,1.355,0.915,2.644,1.293,3.972
	c2.104-0.854,4.418-1.261,6.509-0.573c4.686,1.542,4.259,5.752,2.021,9.376c-0.776,1.257-2.471,1.656-3.791,1.958
	c-0.958,0.219-1.892,1.294-2.7,2.556c0,0.013,0.005,0.022,0.004,0.036c-0.336,8.332,2.298,17.91,7.254,24.745
	c2.669-0.668,4.859-2.64,6.914-4.851c-0.034-0.325,0.169-0.695,0.756-1.012c2.821-1.524,5.899-1.315,6.436,2.003
	c0.026,0.004,0.055,0.004,0.079,0.01c7.392,1.831,3.07,15.37,0.962,19.818c-0.404,0.853-3.299,1.206-2.698-0.062
	c1.453-3.066,4.853-13.602,1.706-17.142c-0.182,2.515-0.935,5.137-1.979,7.31c-0.524,1.09-3.453,1.175-2.756-0.275
	c0.991-2.063,1.58-4.475,1.781-6.749c0.094-1.065,0.209-2.314-0.26-3.318c-0.467-0.999-1.269-0.399-2.016,0.005
	c-0.09,0.049-0.181,0.088-0.271,0.12c-2.351,2.301-5.01,4.187-7.963,5.101c0.478,0.885-2.148,1.802-2.739,1.045
	c-0.122-0.155-0.234-0.32-0.353-0.478c-1.438,0.086-2.932-0.058-4.488-0.512c-0.889-0.259,1.687-1.354,2.373-1.153
	c0.379,0.111,0.748,0.189,1.109,0.251c-1.243-1.851-2.324-3.854-3.234-5.958c-6.86,3.698-11.333,10.511-17.816,14.771
	c-0.209,0.417-0.748,0.837-1.417,0.914c-22.284,2.551-44.576,5.042-66.937,6.83c-13.171,1.052-26.383,1.979-39.601,2.127
	c-7.735,0.086-16.741,0.699-24.158-1.998c-0.314-0.114-0.484-0.26-0.547-0.419c-2.596,4.896-3.472,11.1-4.08,16.211
	c-0.727,6.111-0.988,12.25-1.037,18.398c24.653-0.181,49.022-3.946,72.893-10.013c23.288-5.919,47.478-9.829,70.031-18.263
	c1.111-0.416,2.394,0.295,1.954,0.958c7.444,0.705,14.972,1.907,22.439,1.123c-0.078-0.156-0.156-0.312-0.234-0.467
	c-0.3-0.597,2.489-1.591,2.897-0.776c0.135,0.27,0.272,0.541,0.408,0.812c3.71-0.679,7.649-2.056,9.609-5.387
	c2.58-4.384,1.845-9.452,0.585-14.148c-0.313-1.169,2.584-1.945,2.897-0.776c2.835,10.569-0.497,19.561-11.87,21.872
	c-0.134,0.027-0.268,0.046-0.401,0.072c6.042,11.991,12.508,24.177,21.518,34.182c2.662-3.38,6.202-6.282,9.353-9.024
	c6.208-5.403,12.667-10.529,19.289-15.416C467.366,334.215,480.586,324.507,495.109,319.189z M434.645,264.396
	c-9.778,4.231-19.098,10.423-29.729,12.293c-1.377,0.243-2.388,1.973-0.392,1.622c11.238-1.978,20.938-8.235,31.271-12.707
	C437.649,264.802,435.951,263.831,434.645,264.396z M441.645,275.896c-9.778,4.231-19.098,10.423-29.729,12.293
	c-1.377,0.243-2.388,1.973-0.392,1.622c11.238-1.978,20.938-8.235,31.271-12.707C444.649,276.302,442.951,275.331,441.645,275.896z
	 M449.645,288.896c-9.778,4.231-19.098,10.423-29.729,12.293c-1.377,0.243-2.388,1.973-0.392,1.622
	c11.238-1.978,20.938-8.235,31.271-12.707C452.649,289.302,450.951,288.331,449.645,288.896z M461.145,303.396
	c-9.778,4.231-19.098,10.423-29.729,12.293c-1.377,0.243-2.388,1.973-0.392,1.622c11.238-1.978,20.938-8.235,31.271-12.707
	C464.149,303.802,462.451,302.831,461.145,303.396z M463.145,314.396c-9.778,4.231-19.098,10.423-29.729,12.293
	c-1.377,0.243-2.388,1.973-0.392,1.622c11.238-1.978,20.938-8.235,31.271-12.707C466.149,314.802,464.451,313.831,463.145,314.396z
	 M188.675,413.844c0.208-1.255-2.729-0.782-2.911,0.313c-1.153,6.95-4.9,13.559-10.965,17.332c-1.669,1.038,0.82,1.659,1.842,1.022
	C183.188,428.438,187.423,421.385,188.675,413.844z M179.057,413.488c1.593-2.753,2.54-5.674,2.111-8.875
	c-0.114-0.856-3.03-0.21-2.897,0.776c0.388,2.902-0.442,5.624-1.889,8.125C175.746,414.612,178.63,414.225,179.057,413.488z
	 M367.105,343.75c-3.761,1.576-7.765,2.657-11.322,4.682c-0.493,0.281-0.772,1.001-0.195,1.35c0.647,0.393,1.47,0.127,2.067-0.213
	c3.319-1.89,7.167-2.847,10.678-4.318C370.18,344.477,368.522,343.156,367.105,343.75z M501.828,310.847
	c-5.586,0.215-9.951-5.585-13.25-9.361c-0.527-0.604-3.263,0.407-2.719,1.03c3.872,4.434,8.299,9.887,14.75,9.639
	C501.463,312.122,503.761,310.772,501.828,310.847z M489.36,299.017c0.597,0.583,3.278-0.486,2.718-1.033
	c-1.025-1-2.225-1.847-3.5-2.5c-0.568-0.291-1.315-0.111-1.882,0.104c-0.116,0.044-1.362,0.659-0.835,0.929
	C487.135,297.17,488.335,298.017,489.36,299.017z M337.441,200.503c0.477-0.088,1.446-0.276,1.705-0.767
	c0.908-1.721,2.532-2.56,3.88-3.862c0.465-0.449-0.413-0.453-0.672-0.428c-0.611,0.059-1.48,0.233-1.942,0.68
	c-1.437,1.387-3.151,2.304-4.12,4.138C336.059,200.709,337.324,200.525,337.441,200.503z M341.354,208.906
	c-0.338,0.588,0.287,1.024,0.832,1.024c2.481-0.002,4.855-0.151,7.14-1.213c0.427-0.198,1.186-0.778,0.731-1.317
	c-0.44-0.522-1.409-0.364-1.941-0.116c-1.558,0.725-3.169,0.785-4.86,0.787C342.575,208.07,341.724,208.263,341.354,208.906z
	 M346.088,214.52c-0.503-0.502-3.118,0.581-2.737,0.961c1.289,1.287,2.555,2.031,4.419,2.076c0.681,0.016,1.464-0.206,2.049-0.549
	c0.477-0.279,0.386-0.551-0.151-0.564C348.153,216.407,347.111,215.541,346.088,214.52z" fill="#673AB7FF"></path>
</svg>